<mxfile host="app.diagrams.net" modified="2023-10-09T12:15:55.279Z" agent="Mozilla/5.0 (Windows NT 10.0; Win64; x64) AppleWebKit/537.36 (KHTML, like Gecko) Chrome/117.0.0.0 Safari/537.36" etag="tBxzDUwOwGBbHHLC_FYI" version="22.0.4" type="github">
  <diagram name="Page-1" id="yo8AOzoBUr_xJ8aW7QCD">
    <mxGraphModel dx="1372" dy="950" grid="1" gridSize="10" guides="1" tooltips="1" connect="1" arrows="1" fold="1" page="1" pageScale="1" pageWidth="850" pageHeight="1100" math="0" shadow="0">
      <root>
        <mxCell id="0" />
        <mxCell id="1" parent="0" />
        <mxCell id="bZfSAwMK4_I0s8wjxibU-4" value="" style="ellipse;whiteSpace=wrap;html=1;aspect=fixed;" vertex="1" parent="1">
          <mxGeometry x="238" y="130" width="375" height="375" as="geometry" />
        </mxCell>
        <mxCell id="bZfSAwMK4_I0s8wjxibU-2" value="&lt;font style=&quot;font-size: 19px;&quot;&gt;Gépi tanulás alapjai&lt;/font&gt;" style="ellipse;whiteSpace=wrap;html=1;aspect=fixed;fillColor=#e51400;fontColor=#ffffff;strokeColor=#B20000;" vertex="1" parent="1">
          <mxGeometry x="355" y="70" width="140" height="140" as="geometry" />
        </mxCell>
        <mxCell id="bZfSAwMK4_I0s8wjxibU-3" value="&lt;font style=&quot;font-size: 25px;&quot;&gt;Áttekintendő Elméleti Témák&lt;/font&gt;" style="text;html=1;strokeColor=none;fillColor=none;align=center;verticalAlign=middle;whiteSpace=wrap;rounded=0;" vertex="1" parent="1">
          <mxGeometry x="390" y="310" width="60" height="30" as="geometry" />
        </mxCell>
        <mxCell id="bZfSAwMK4_I0s8wjxibU-5" value="&lt;font style=&quot;font-size: 19px;&quot;&gt;Időjárás jelentési alapok&lt;/font&gt;" style="ellipse;whiteSpace=wrap;html=1;aspect=fixed;fillColor=#e51400;fontColor=#ffffff;strokeColor=#B20000;" vertex="1" parent="1">
          <mxGeometry x="530" y="190" width="140" height="140" as="geometry" />
        </mxCell>
        <mxCell id="bZfSAwMK4_I0s8wjxibU-6" value="&lt;font style=&quot;font-size: 19px;&quot;&gt;TensorFlow &amp;amp; Keras&lt;/font&gt;" style="ellipse;whiteSpace=wrap;html=1;aspect=fixed;fillColor=#e51400;fontColor=#ffffff;strokeColor=#B20000;" vertex="1" parent="1">
          <mxGeometry x="495" y="400" width="140" height="140" as="geometry" />
        </mxCell>
        <mxCell id="bZfSAwMK4_I0s8wjxibU-7" value="&lt;font style=&quot;font-size: 19px;&quot;&gt;Idősorokhoz kapcsolódó modellek&lt;/font&gt;" style="ellipse;whiteSpace=wrap;html=1;aspect=fixed;fillColor=#e51400;fontColor=#ffffff;strokeColor=#B20000;" vertex="1" parent="1">
          <mxGeometry x="215" y="400" width="140" height="140" as="geometry" />
        </mxCell>
        <mxCell id="bZfSAwMK4_I0s8wjxibU-8" value="&lt;font style=&quot;font-size: 19px;&quot;&gt;Időjárási adatok gyűjtése&lt;/font&gt;" style="ellipse;whiteSpace=wrap;html=1;aspect=fixed;fillColor=#e51400;fontColor=#ffffff;strokeColor=#B20000;" vertex="1" parent="1">
          <mxGeometry x="180" y="190" width="140" height="140" as="geometry" />
        </mxCell>
      </root>
    </mxGraphModel>
  </diagram>
</mxfile>
